<?xml version="1.0" standalone="no"?>
<!DOCTYPE svg PUBLIC "-//W3C//DTD SVG 20010904//EN"
 "http://www.w3.org/TR/2001/REC-SVG-20010904/DTD/svg10.dtd">
<svg version="1.0" xmlns="http://www.w3.org/2000/svg"
 width="1540.000000pt" height="1697.000000pt" viewBox="0 0 1540.000000 1697.000000"
 preserveAspectRatio="xMidYMid meet" fill="#29337d">

<g transform="translate(0.000000,1697.000000) scale(0.100000,-0.100000)" stroke="none">
<path d="M7410 16954 c-864 -77 -1621 -384 -2265 -919 -498 -414 -909 -976
-1146 -1568 -297 -739 -370 -1525 -214 -2303 243 -1202 1031 -2230 2135 -2784
408 -204 842 -333 1335 -396 176 -23 676 -26 860 -6 381 42 755 136 1100 277
1186 482 2075 1512 2379 2755 83 340 110 578 110 955 -1 371 -30 620 -110 947
-354 1443 -1477 2571 -2919 2932 -335 83 -529 107 -915 111 -168 1 -325 1
-350 -1z"/>
<path d="M7321 8000 c-1838 -96 -3524 -781 -4911 -1996 -172 -150 -552 -530
-699 -699 -735 -842 -1253 -1741 -1597 -2770 -88 -265 -90 -275 -104 -448 -32
-394 75 -827 285 -1162 295 -470 732 -773 1284 -893 l126 -27 5995 0 5995 0
128 28 c757 163 1327 708 1512 1447 46 181 58 306 52 525 -6 235 -29 360 -102
573 -306 893 -752 1705 -1339 2437 -333 415 -817 900 -1231 1231 -1283 1028
-2797 1620 -4455 1744 -198 14 -739 20 -939 10z"/>
</g>
</svg>
