<?xml version="1.0" encoding="utf-8"?>
<!-- Generator: Adobe Illustrator 26.0.3, SVG Export Plug-In . SVG Version: 6.00 Build 0)  -->
<svg version="1.1" id="Capa_1" xmlns="http://www.w3.org/2000/svg" xmlns:xlink="http://www.w3.org/1999/xlink" x="0px" y="0px"
	 viewBox="0 0 512 512" style="enable-background:new 0 0 512 512;" fill="#29337d" xml:space="preserve">
<path d="M442.7,176.3c-7.7-3.9-16.4-6-25.6-6H92c-9.1,0-17.8,2.1-25.4,6c-18.8,9.4-31.8,28.8-31.8,51.3V406
	c0,31.6,25.6,57.2,57.2,57.2h325c31.6,0,57.2-25.6,57.2-57.2V227.5C474.2,205.1,461.4,185.7,442.7,176.3z M417.3,375.8
	c0,11-9,20-20,20H111.7c-11,0-20-9-20-20V257.7c0-11,9-20,20-20h285.5c11,0,20,9,20,20V375.8z"/>
<path d="M254.5,48.8c-81,0-148.3,58.1-162.8,134.8h62.5c13.1-42.9,53.1-74.1,100.2-74.1c47.2,0,87.1,31.2,100.2,74.1h62.5
	C402.9,106.9,335.5,48.8,254.5,48.8z"/>
</svg>
