<?xml version="1.0" encoding="utf-8"?>
<!-- Generator: Adobe Illustrator 26.0.3, SVG Export Plug-In . SVG Version: 6.00 Build 0)  -->
<svg version="1.1" id="Capa_1" xmlns="http://www.w3.org/2000/svg" xmlns:xlink="http://www.w3.org/1999/xlink" x="0px" y="0px"
	 viewBox="0 0 512 512" style="enable-background:new 0 0 512 512;" fill="#ffffff" xml:space="preserve">
<path d="M437.5,437.5L437.5,437.5c-12.5,12.5-32.8,12.5-45.3,0L73.4,118.6c-12.5-12.5-12.5-32.8,0-45.3l0,0
	c12.5-12.5,32.8-12.5,45.3,0l318.9,318.9C450,404.7,450,425,437.5,437.5z"/>
<path d="M74.3,437.7L74.3,437.7c-12.5-12.5-12.5-32.8,0-45.3L393.4,73.4c12.5-12.5,32.8-12.5,45.3,0l0,0c12.5,12.5,12.5,32.8,0,45.3
	L119.5,437.7C107.1,450.2,86.8,450.2,74.3,437.7z"/>
</svg>
