<?xml version="1.0" standalone="no"?>
<!DOCTYPE svg PUBLIC "-//W3C//DTD SVG 20010904//EN"
 "http://www.w3.org/TR/2001/REC-SVG-20010904/DTD/svg10.dtd">
<svg version="1.0" xmlns="http://www.w3.org/2000/svg"
 width="2134.000000pt" height="1867.000000pt" viewBox="0 0 2134.000000 1867.000000"
 preserveAspectRatio="xMidYMid meet">

<g transform="translate(0.000000,1867.000000) scale(0.100000,-0.100000)"
fill="#29337d" stroke="none">
<path d="M1175 18659 c-299 -32 -588 -178 -808 -408 -178 -187 -294 -413 -344
-669 -23 -120 -23 -367 1 -486 55 -279 175 -506 370 -701 176 -175 368 -284
621 -353 l100 -27 9505 -3 c8750 -2 9513 -1 9605 14 262 43 497 161 696 351
664 636 497 1738 -326 2151 -104 51 -202 86 -323 114 l-97 23 -9460 1 c-5203
1 -9496 -2 -9540 -7z"/>
<path d="M1175 10659 c-299 -32 -588 -178 -808 -408 -178 -187 -294 -413 -344
-669 -23 -120 -23 -367 1 -486 55 -279 175 -506 370 -701 176 -175 368 -284
621 -353 l100 -27 9505 -3 c8750 -2 9513 -1 9605 14 262 43 497 161 696 351
664 636 497 1738 -326 2151 -104 51 -202 86 -323 114 l-97 23 -9460 1 c-5203
1 -9496 -2 -9540 -7z"/>
<path d="M1175 2659 c-299 -32 -588 -178 -808 -408 -178 -187 -294 -413 -344
-669 -23 -120 -23 -367 1 -486 55 -279 175 -506 370 -701 176 -175 368 -284
621 -353 l100 -27 9505 -3 c8750 -2 9513 -1 9605 14 262 43 497 161 696 351
664 636 497 1738 -326 2151 -104 51 -202 86 -323 114 l-97 23 -9460 1 c-5203
1 -9496 -2 -9540 -7z"/>
</g>
</svg>
